<svg width="28" height="27" viewBox="0 0 28 27" fill="none" xmlns="http://www.w3.org/2000/svg">
<path d="M27.955 0.569363C27.9533 0.564111 27.9533 0.557108 27.9515 0.550105C27.9095 0.443314 27.8482 0.341775 27.7625 0.254242C27.7467 0.238486 27.7274 0.233234 27.7117 0.219228C27.6994 0.208724 27.6977 0.192968 27.6854 0.182464C27.6627 0.164957 27.6347 0.164957 27.6101 0.149201C27.5226 0.091429 27.4316 0.0511636 27.3335 0.0284048C27.295 0.0196514 27.26 0.00914749 27.2197 0.00564614C27.0814 -0.00835924 26.9414 0.00214479 26.8101 0.054665L0.549988 10.557C0.226114 10.6848 0.00903004 10.9946 0.000276675 11.3448C-0.00847669 11.6949 0.1911 12.0153 0.509723 12.1623L10.5043 16.7753V25.3729C10.5043 25.765 10.7652 26.1099 11.1416 26.215C11.2203 26.2377 11.3009 26.2482 11.3797 26.2482C11.679 26.2482 11.9626 26.0942 12.1254 25.8316L16.096 19.3576L23.2685 22.6681C23.384 22.7189 23.5101 22.7469 23.6344 22.7469C23.7762 22.7469 23.9162 22.7119 24.044 22.6453C24.2856 22.5175 24.4537 22.2847 24.4974 22.0151L27.9988 1.00878C28.0023 0.991275 27.9918 0.975519 27.9935 0.958012C28.0075 0.826712 28.0005 0.695411 27.955 0.569363ZM11.1993 15.1682L3.08846 11.4253L23.3648 3.31617L11.1993 15.1682ZM12.255 22.2725V17.5842L14.4941 18.6188L12.255 22.2725ZM22.9604 20.5953L12.9027 15.9543L25.8332 3.35643L22.9604 20.5953Z" fill="#000"/>
</svg>
